<?xml version="1.0" encoding="utf-8"?>
<!-- Generator: Adobe Illustrator 12.0.0, SVG Export Plug-In . SVG Version: 6.00 Build 51448)  -->
<!DOCTYPE svg PUBLIC "-//W3C//DTD SVG 1.1//EN" "http://www.w3.org/Graphics/SVG/1.1/DTD/svg11.dtd" [
	<!ENTITY ns_svg "http://www.w3.org/2000/svg">
	<!ENTITY ns_xlink "http://www.w3.org/1999/xlink">
]>
<svg  version="1.1" id="Layer_1" xmlns="&ns_svg;" xmlns:xlink="&ns_xlink;" width="601" height="601" viewBox="0 0 601 601"
	 overflow="visible" enable-background="new 0 0 601 601" xml:space="preserve">
<g>
	<g>
		<g>
			<path fill="#FFFFFF" d="M0.5,50.5c0-27.6142578,22.3852539-50,50-50h500c27.6142578,0,50,22.3857422,50,50v500
				c0,27.6152344-22.3857422,50-50,50h-500c-27.6147461,0-50-22.3847656-50-50V50.5L0.5,50.5z"/>
			<path fill="#FFFFFF" d="M300.5,300.5"/>
		</g>
		<g>
			<path fill="none" stroke="#000000" stroke-linecap="round" stroke-linejoin="round" stroke-miterlimit="3.863693" d="M0.5,50.5
				c0-27.6142578,22.3852539-50,50-50h500c27.6142578,0,50,22.3857422,50,50v500c0,27.6152344-22.3857422,50-50,50h-500
				c-27.6147461,0-50-22.3847656-50-50V50.5L0.5,50.5z"/>
			<path fill="none" stroke="#000000" stroke-linecap="round" stroke-linejoin="round" stroke-miterlimit="3.863693" d="
				M300.5,300.5"/>
		</g>
	</g>
	<g>
		<g>
			<path d="M10.5,50.5c0-22.0913086,17.9082031-40,40-40h500c22.0917969,0,40,17.9086914,40,40v500
				c0,22.0917969-17.9082031,40-40,40h-500c-22.0917969,0-40-17.9082031-40-40V50.5L10.5,50.5z"/>
			<path d="M300.5,300.5"/>
		</g>
	</g>
	<g>
		<g>
			<path fill="#FFFFFF" d="M25.5,50.5c0-13.8071289,11.1923828-25,25-25h500c13.8066406,0,25,11.1928711,25,25v500
				c0,13.8076172-11.1933594,25-25,25h-500c-13.8076172,0-25-11.1923828-25-25V50.5L25.5,50.5z"/>
			<path fill="#FFFFFF" d="M300.5,300.5"/>
		</g>
	</g>
</g>
<g>
	<path fill-rule="evenodd" clip-rule="evenodd" d="M160.4926758,445.3125V210.5869141h-26.3686523v-36.7441406h3.0258789
		c6.0517578,0,12.1035156-1.5844727,18.1552734-4.7548828c6.0522461-3.1699219,11.0952148-7.637207,15.1298828-13.4003906
		h36.7436523v289.625H160.4926758z"/>
	<path fill-rule="evenodd" clip-rule="evenodd" d="M466.8759766,338.5410156
		c0,16.1376953-3.0986328,30.9794922-9.2939453,44.5234375c-6.1953125,13.5449219-14.9140625,25.3613281-26.1523438,35.4472656
		c-11.2402344,10.0859375-24.5683594,17.9394531-39.9863281,23.5585938
		C376.0253906,447.6904297,359.0957031,450.5,340.6513672,450.5c-12.6806641,0-25.1435547-1.4414063-37.3916016-4.3222656
		c-12.2485352-2.8828125-23.4155273-6.9169922-33.5019531-12.1035156l22.4785156-40.6347656
		c6.0517578,3.1699219,13.9765625,5.6914063,23.7753906,7.5644531c9.7978516,1.8730469,20.0283203,2.8105469,30.6914063,2.8105469
		c10.375,0,20.1015625-1.6572266,29.1787109-4.9716797c9.0771484-3.3134766,17.0029297-7.8525391,23.7753906-13.6162109
		s12.03125-12.6083984,15.7783203-20.5332031c3.7460938-7.9257813,5.6191406-16.6425781,5.6191406-26.1523438
		c0-7.2050781-1.3691406-13.8339844-4.1074219-19.8847656c-2.7373047-6.0527344-6.4833984-11.3837891-11.2382813-15.9941406
		c-4.7558594-4.6113281-10.2304688-8.2138672-16.4267578-10.8076172s-12.8955078-3.890625-20.1005859-3.890625
		c-5.1875,0-9.7265625,0.4326172-13.6171875,1.296875c-3.890625,0.8647461-7.5644531,2.449707-11.0234375,4.7553711
		c-3.4570313,2.3056641-6.9160156,5.4033203-10.3740234,9.2944336c-3.4580078,3.890625-7.3486328,8.8613281-11.6708984,14.9130859
		l-45.8217773-12.9677734L284.0234375,155.6875h166.4257813v45.8212891H328.546875l-3.0253906,47.550293
		c10.6621094-3.1699219,19.0195313-5.3310547,25.0722656-6.484375c6.0517578-1.1523438,12.6796875-1.7285156,19.8847656-1.7285156
		c13.2558594,0,25.7207031,2.5932617,37.3916016,7.7807617S429.7714844,260.875,438.5625,269.8085938
		c8.7890625,8.9335938,15.7050781,19.3081055,20.7480469,31.1240234
		C464.3544922,312.7480469,466.8759766,325.2841797,466.8759766,338.5410156z"/>
</g>
</svg>
